<mxfile host="app.diagrams.net" modified="2021-11-24T12:17:41.217Z" agent="5.0 (X11; Linux x86_64) AppleWebKit/537.36 (KHTML, like Gecko) Chrome/96.0.4664.45 Safari/537.36 Edg/96.0.1054.26" etag="f3VuW7sOtHAXJRJCmHwV" version="15.8.5" type="github">
  <diagram id="63DNbYBMpLY_NwCG2Rcx" name="Page-1">
    <mxGraphModel dx="818" dy="464" grid="1" gridSize="10" guides="1" tooltips="1" connect="1" arrows="1" fold="1" page="1" pageScale="1" pageWidth="827" pageHeight="1169" math="0" shadow="0">
      <root>
        <mxCell id="0" />
        <mxCell id="1" parent="0" />
        <mxCell id="3AOyxLehiP-o8urfBOAM-2" style="edgeStyle=orthogonalEdgeStyle;rounded=0;orthogonalLoop=1;jettySize=auto;html=1;exitX=1;exitY=0.5;exitDx=0;exitDy=0;fontSize=18;entryX=0;entryY=0.5;entryDx=0;entryDy=0;" edge="1" parent="1" source="3AOyxLehiP-o8urfBOAM-1" target="3AOyxLehiP-o8urfBOAM-4">
          <mxGeometry relative="1" as="geometry">
            <mxPoint x="290" y="215" as="targetPoint" />
          </mxGeometry>
        </mxCell>
        <mxCell id="3AOyxLehiP-o8urfBOAM-5" value="&lt;b&gt;pwm topic&lt;/b&gt;" style="edgeLabel;html=1;align=center;verticalAlign=middle;resizable=0;points=[];fontSize=18;" vertex="1" connectable="0" parent="3AOyxLehiP-o8urfBOAM-2">
          <mxGeometry x="-0.3029" y="3" relative="1" as="geometry">
            <mxPoint x="48" y="-12" as="offset" />
          </mxGeometry>
        </mxCell>
        <mxCell id="3AOyxLehiP-o8urfBOAM-6" value="&lt;font style=&quot;font-size: 14px&quot;&gt;publishes&lt;/font&gt;" style="edgeLabel;html=1;align=center;verticalAlign=middle;resizable=0;points=[];fontSize=18;" vertex="1" connectable="0" parent="3AOyxLehiP-o8urfBOAM-2">
          <mxGeometry x="-0.7543" y="-3" relative="1" as="geometry">
            <mxPoint x="-3" y="-8" as="offset" />
          </mxGeometry>
        </mxCell>
        <mxCell id="3AOyxLehiP-o8urfBOAM-7" value="&lt;font style=&quot;font-size: 14px&quot;&gt;subscribes&lt;/font&gt;" style="edgeLabel;html=1;align=center;verticalAlign=middle;resizable=0;points=[];fontSize=18;" vertex="1" connectable="0" parent="3AOyxLehiP-o8urfBOAM-2">
          <mxGeometry x="0.8" y="-3" relative="1" as="geometry">
            <mxPoint x="-25" y="-8" as="offset" />
          </mxGeometry>
        </mxCell>
        <mxCell id="3AOyxLehiP-o8urfBOAM-1" value="&lt;font style=&quot;font-size: 18px&quot;&gt;&lt;b&gt;Node&lt;/b&gt;&lt;br&gt;created in Python script&lt;/font&gt;" style="rounded=0;whiteSpace=wrap;html=1;fillColor=#FFFFCC;" vertex="1" parent="1">
          <mxGeometry x="80" y="140" width="120" height="150" as="geometry" />
        </mxCell>
        <mxCell id="3AOyxLehiP-o8urfBOAM-4" value="&lt;span style=&quot;font-size: 18px&quot;&gt;&lt;b&gt;Wing Link Node&lt;/b&gt;&lt;/span&gt;" style="rounded=0;whiteSpace=wrap;html=1;fillColor=#99FF99;" vertex="1" parent="1">
          <mxGeometry x="550" y="140" width="120" height="150" as="geometry" />
        </mxCell>
      </root>
    </mxGraphModel>
  </diagram>
</mxfile>
